<svg xmlns="http://www.w3.org/2000/svg" width="463.27" height="286.39" viewBox="0 0 463.27 286.39"><defs><style>.cls-1{fill:#37c5fd;}.cls-2{fill:#0a2a66;}.cls-3{fill:#ccfbf0;}.cls-4{fill:#1865f2;}.cls-5{fill:none;stroke:#0a2a66;stroke-miterlimit:10;stroke-width:3px;}</style></defs><title>distributed_cat</title><g id="Layer_2" data-name="Layer 2"><rect class="cls-1" x="181.23" width="95" height="105.23" rx="4.86"/><rect class="cls-2" x="186.34" y="22.65" width="84.04" height="7.31"/><rect class="cls-2" x="186.34" y="38.18" width="84.04" height="7.31"/><rect class="cls-2" x="187.07" y="53.71" width="84.04" height="7.31"/><rect class="cls-2" x="187.07" y="69.24" width="84.04" height="7.31"/><rect class="cls-2" x="187.07" y="84.77" width="84.04" height="7.31"/><circle class="cls-3" cx="264.53" cy="10.23" r="4.38"/><rect class="cls-1" x="392.04" y="161.44" width="71.23" height="78.9" rx="3.65"/><rect class="cls-2" x="395.88" y="178.43" width="63.01" height="5.48"/><rect class="cls-2" x="395.88" y="190.07" width="63.01" height="5.48"/><rect class="cls-2" x="396.43" y="201.71" width="63.01" height="5.48"/><rect class="cls-2" x="396.43" y="213.36" width="63.01" height="5.48"/><rect class="cls-2" x="396.43" y="225" width="63.01" height="5.48"/><circle class="cls-3" cx="454.51" cy="169.11" r="3.29"/><path d="M332.45,101.36a3.53,3.53,0,0,1,1.7-.31,2.59,2.59,0,0,1,1.29.4,2,2,0,0,1,.79,1.43,3.14,3.14,0,0,1-.71,2.14,4.53,4.53,0,0,1-1.54,1.4,3.62,3.62,0,0,1-1.76.48,3,3,0,0,1-1.77-.62c-.16-.12-.41-.32-.72-.6l-.22-.19L328,107.57l-.89-.64,5.27-7.4.89.63Zm-.75,1.06-1.63,2.29a4.58,4.58,0,0,0,.8.75,2.14,2.14,0,0,0,1.81.33,3.13,3.13,0,0,0,1.79-1.34A2.48,2.48,0,0,0,335,103a1,1,0,0,0-.4-.89,1.88,1.88,0,0,0-1.21-.23A5.11,5.11,0,0,0,331.7,102.42Z"/><path d="M339.25,111.88a5.78,5.78,0,0,1-2.37-.93,2.83,2.83,0,0,1-1-1.27,3.11,3.11,0,0,1-.18-1.67,3.8,3.8,0,0,1,.67-1.67,3.9,3.9,0,0,1,1.32-1.17,3,3,0,0,1,1.65-.4,2.84,2.84,0,0,1,1.57.55,2.32,2.32,0,0,1,1,1.76,3.88,3.88,0,0,1-.91,2.5l-.13.18-3.68-2.61a2.83,2.83,0,0,0-.49,1.18,2.06,2.06,0,0,0,.12,1.12,1.94,1.94,0,0,0,.7.84,4.85,4.85,0,0,0,2.31.78Zm-1.53-5.36,2.66,1.9.09-.13a2,2,0,0,0,.42-1.27,1.32,1.32,0,0,0-.58-1,1.56,1.56,0,0,0-1.22-.27A2.72,2.72,0,0,0,337.72,106.52Z"/><path d="M345,116.21a6.05,6.05,0,0,1-1.13-.33,3.68,3.68,0,0,1-.58-.34,3,3,0,0,1-.87-.94,1.82,1.82,0,0,1-.24-1.13,3.44,3.44,0,0,1,.68-1.47l1.53-2.15-1.33-.94.52-.74,1.34.94,1.52-2.15.89.64-1.52,2.14,2.37,1.69-.53.74-2.37-1.69-1.52,2.14a2.4,2.4,0,0,0-.49,1,1.13,1.13,0,0,0,.13.68,1.65,1.65,0,0,0,.51.55,3.37,3.37,0,0,0,1.65.56Z"/><path d="M348.8,118.09l4.06-5.71a8.76,8.76,0,0,1-1.16,0,7.14,7.14,0,0,1-1.36-.28l.57-.8a7.59,7.59,0,0,0,2.63.14l.89.63-4.75,6.67,1.79,1.27-.53.74-4.48-3.19.52-.74Z"/><path d="M354.2,123.38a.93.93,0,0,1-.39-.62.93.93,0,0,1,.79-1.09.9.9,0,0,1,.71.16.92.92,0,0,1,.38.61.89.89,0,0,1-.16.72,1,1,0,0,1-.62.39A.9.9,0,0,1,354.2,123.38Z"/><path d="M356.63,127.92l.59-.83a5.85,5.85,0,0,0,1.1,1.12,2.13,2.13,0,0,0,.87.38,1.33,1.33,0,0,0,.85-.18,4.11,4.11,0,0,0,1.09-1.16l2.92-4.11-2.26-1.61.52-.74,3.16,2.24-3.34,4.68a4.77,4.77,0,0,1-1.65,1.66,2.43,2.43,0,0,1-1.32.21,3.48,3.48,0,0,1-1.4-.66A7.8,7.8,0,0,1,356.63,127.92Zm9.18-7.55a.61.61,0,0,1,.52-.3.69.69,0,0,1,.77.55.62.62,0,0,1-.11.59.61.61,0,0,1-.52.3.81.81,0,0,1-.49-.13.82.82,0,0,1-.29-.43A.63.63,0,0,1,365.81,120.37Z"/><path d="M367.67,126.4a3.49,3.49,0,0,1,1.69-.31,2.49,2.49,0,0,1,1.29.4,2,2,0,0,1,.79,1.43,3.09,3.09,0,0,1-.71,2.14,4.7,4.7,0,0,1-1.53,1.4,3.75,3.75,0,0,1-1.77.47,3,3,0,0,1-1.77-.62,9.27,9.27,0,0,1-.72-.59l-.21-.19-1.48,2.07-.89-.63,5.27-7.4.89.63Zm-.76,1-1.62,2.29a3.77,3.77,0,0,0,.8.76,2.12,2.12,0,0,0,1.8.33,3.14,3.14,0,0,0,1.79-1.34,2.41,2.41,0,0,0,.55-1.41,1,1,0,0,0-.4-.89,1.8,1.8,0,0,0-1.21-.23A5.32,5.32,0,0,0,366.91,127.45Z"/><path d="M374.19,135.46a3.49,3.49,0,0,1-1.69.31,2.5,2.5,0,0,1-1.29-.41,1.93,1.93,0,0,1-.79-1.43,3,3,0,0,1,.71-2.13,4.49,4.49,0,0,1,1.53-1.4,3.62,3.62,0,0,1,1.76-.48,3,3,0,0,1,1.77.62c.17.12.41.32.73.59a1.44,1.44,0,0,0,.21.19l.89.63-2.68,3.78c-.64.89-1,1.44-1.21,1.62a5.36,5.36,0,0,1-.54.52,2.22,2.22,0,0,1-1.67.5,3.85,3.85,0,0,1-1.94-.76,5.47,5.47,0,0,1-1.61-1.89l.64-.9a5.39,5.39,0,0,0,.6,1.12,4.26,4.26,0,0,0,.93,1,3,3,0,0,0,.86.42,1.81,1.81,0,0,0,.86,0A1.63,1.63,0,0,0,373,137a4.67,4.67,0,0,0,.69-.8Zm.75-1.06,1.63-2.29a3.93,3.93,0,0,0-.79-.75A2.14,2.14,0,0,0,374,131a3.16,3.16,0,0,0-1.78,1.34,2.41,2.41,0,0,0-.55,1.41,1,1,0,0,0,.39.89,1.83,1.83,0,0,0,1.22.24A5,5,0,0,0,374.94,134.4Z"/><line class="cls-4" x1="314.68" y1="104.38" x2="382.98" y2="156.11"/><line class="cls-5" x1="314.68" y1="104.38" x2="376.55" y2="151.24"/><polygon class="cls-2" points="370.51 152.94 375.23 150.24 376.55 144.97 382.98 156.11 370.51 152.94"/><rect class="cls-1" x="279.71" y="207.49" width="71.23" height="78.9" rx="3.65"/><rect class="cls-2" x="283.55" y="224.48" width="63.01" height="5.48"/><rect class="cls-2" x="283.55" y="236.12" width="63.01" height="5.48"/><rect class="cls-2" x="284.09" y="247.76" width="63.01" height="5.48"/><rect class="cls-2" x="284.09" y="259.41" width="63.01" height="5.48"/><rect class="cls-2" x="284.09" y="271.05" width="63.01" height="5.48"/><circle class="cls-3" cx="342.18" cy="215.16" r="3.29"/><path d="M278.38,129.81a3.64,3.64,0,0,1,1.71.22,2.57,2.57,0,0,1,1.1.78,2,2,0,0,1,.32,1.61,3.08,3.08,0,0,1-1.33,1.81,4.59,4.59,0,0,1-1.89.86,3.63,3.63,0,0,1-1.83-.08,3,3,0,0,1-1.49-1.14c-.12-.16-.29-.42-.51-.79l-.14-.24-2,1.52-.65-.87,7.28-5.44.65.88Zm-1,.77-2.25,1.68a4.64,4.64,0,0,0,.53,1,2.12,2.12,0,0,0,1.62.87,3.12,3.12,0,0,0,2.11-.73,2.49,2.49,0,0,0,1-1.17,1,1,0,0,0-.11-1,1.8,1.8,0,0,0-1.08-.59A5.18,5.18,0,0,0,277.34,130.58Z"/><path d="M281.62,141.91a5.75,5.75,0,0,1-2-1.61,3,3,0,0,1-.6-1.53,3.17,3.17,0,0,1,.34-1.65,3.84,3.84,0,0,1,1.15-1.38,3.94,3.94,0,0,1,1.62-.71,3.14,3.14,0,0,1,1.7.13,2.82,2.82,0,0,1,1.32,1,2.36,2.36,0,0,1,.45,2,3.88,3.88,0,0,1-1.63,2.09l-.19.14-2.7-3.61a2.62,2.62,0,0,0-.82,1,1.89,1.89,0,0,0,.17,2.12,4.88,4.88,0,0,0,2,1.44Zm.19-5.57,1.95,2.62.12-.1a1.9,1.9,0,0,0,.79-1.07,1.3,1.3,0,0,0-.25-1.13,1.59,1.59,0,0,0-1.07-.63A2.8,2.8,0,0,0,281.81,136.34Z"/><path d="M285.8,147.81a5.86,5.86,0,0,1-1-.66,4.15,4.15,0,0,1-.45-.5,3.13,3.13,0,0,1-.54-1.16,1.9,1.9,0,0,1,.11-1.16,3.36,3.36,0,0,1,1.11-1.18l2.11-1.58-1-1.31.73-.54,1,1.31,2.12-1.58.65.88-2.12,1.57,1.74,2.34-.72.54-1.74-2.34-2.1,1.57a2.32,2.32,0,0,0-.79.82,1.08,1.08,0,0,0-.08.68,1.65,1.65,0,0,0,.32.69,3.39,3.39,0,0,0,1.39,1Z"/><path d="M289.89,153.74l-3.29-4.41.81-.6a2.25,2.25,0,0,1,.76-.37,3.5,3.5,0,0,1,1.15-.11c.47,0,.95.06,1.42.12l.87.12,1.21.12a5.68,5.68,0,0,0,1.36,0,1.49,1.49,0,0,0,.72-.28,1,1,0,0,0,.44-.91,1.83,1.83,0,0,0-.37-1,3.61,3.61,0,0,0-.51-.55,4.4,4.4,0,0,0-.57-.47,10.92,10.92,0,0,0-.94-.56l.78-.58a6.29,6.29,0,0,1,1.27.9,7,7,0,0,1,.83.9,3.57,3.57,0,0,1,.6,1.18,1.77,1.77,0,0,1-.05,1.14,1.94,1.94,0,0,1-.66.86,2.59,2.59,0,0,1-1.23.45,8.56,8.56,0,0,1-2.17-.14l-.93-.14-.78-.12a6.37,6.37,0,0,0-1.35-.06,2.41,2.41,0,0,0-1.18.42l2.61,3.51Z"/><path d="M292.31,157.45a1,1,0,0,1,.2-1.34.86.86,0,0,1,.71-.17.94.94,0,0,1,.63.37,1,1,0,0,1-.91,1.51A.94.94,0,0,1,292.31,157.45Z"/><path d="M293.24,162.51l.81-.6a5.57,5.57,0,0,0,.71,1.39,2,2,0,0,0,.7.63,1.27,1.27,0,0,0,.87.09,4,4,0,0,0,1.39-.76l4-3L300.11,158l.73-.54,2.31,3.1L298.54,164a4.86,4.86,0,0,1-2.09,1.06,2.41,2.41,0,0,1-1.31-.2,3.54,3.54,0,0,1-1.14-1.06A7.55,7.55,0,0,1,293.24,162.51Zm11.05-4.37a.64.64,0,0,1,.58-.13.88.88,0,0,1,.44.28.86.86,0,0,1,.14.49.64.64,0,0,1-.3.53.63.63,0,0,1-.58.12.8.8,0,0,1-.43-.27.81.81,0,0,1-.14-.49A.63.63,0,0,1,304.29,158.14Z"/><path d="M304.2,164.45a3.51,3.51,0,0,1,1.71.23,2.51,2.51,0,0,1,1.11.78,2,2,0,0,1,.31,1.6,3,3,0,0,1-1.33,1.81,4.49,4.49,0,0,1-1.89.87,3.74,3.74,0,0,1-1.83-.09,3,3,0,0,1-1.49-1.13c-.12-.17-.29-.43-.51-.79l-.14-.25-2,1.52-.65-.87,7.28-5.43.65.87Zm-1,.78-2.26,1.68a4.81,4.81,0,0,0,.53,1,2.13,2.13,0,0,0,1.62.87,3.07,3.07,0,0,0,2.11-.73,2.49,2.49,0,0,0,1-1.17,1,1,0,0,0-.11-1,1.8,1.8,0,0,0-1.08-.59A4.91,4.91,0,0,0,303.17,165.23Z"/><path d="M307.63,175.08a3.55,3.55,0,0,1-1.71-.22,2.65,2.65,0,0,1-1.1-.79,1.94,1.94,0,0,1-.31-1.6,3,3,0,0,1,1.33-1.81,4.49,4.49,0,0,1,1.89-.87,3.74,3.74,0,0,1,1.83.09,3.06,3.06,0,0,1,1.49,1.13c.12.17.29.43.51.79a1.75,1.75,0,0,0,.14.24l.65.88-3.71,2.77c-.88.66-1.43,1.05-1.64,1.17a7.13,7.13,0,0,1-.68.33,2.28,2.28,0,0,1-1.74,0,3.84,3.84,0,0,1-1.61-1.32,5.36,5.36,0,0,1-1-2.3l.89-.66a4.83,4.83,0,0,0,.23,1.25,4,4,0,0,0,.59,1.2,3.08,3.08,0,0,0,.69.66,1.73,1.73,0,0,0,.8.31,1.6,1.6,0,0,0,.78-.12,4.35,4.35,0,0,0,.9-.55Zm1-.78,2.26-1.67a4.14,4.14,0,0,0-.53-1,2.09,2.09,0,0,0-1.63-.88,3.11,3.11,0,0,0-2.1.73,2.44,2.44,0,0,0-1,1.17,1,1,0,0,0,.1,1,1.86,1.86,0,0,0,1.09.59A4.91,4.91,0,0,0,308.67,174.3Z"/><line class="cls-4" x1="259.54" y1="128.23" x2="308.65" y2="198.43"/><line class="cls-5" x1="259.54" y1="128.23" x2="304.03" y2="191.82"/><polygon class="cls-2" points="297.76 191.58 303.08 190.46 305.96 185.85 308.65 198.43 297.76 191.58"/><rect class="cls-1" x="99.67" y="207.49" width="71.23" height="78.9" rx="3.65"/><rect class="cls-2" x="103.51" y="224.48" width="63.01" height="5.48"/><rect class="cls-2" x="103.51" y="236.12" width="63.01" height="5.48"/><rect class="cls-2" x="104.05" y="247.76" width="63.01" height="5.48"/><rect class="cls-2" x="104.05" y="259.41" width="63.01" height="5.48"/><rect class="cls-2" x="104.05" y="271.05" width="63.01" height="5.48"/><circle class="cls-3" cx="162.13" cy="215.16" r="3.29"/><path d="M141.31,170.85a3.5,3.5,0,0,1-.29-1.7,2.43,2.43,0,0,1,.41-1.28,2,2,0,0,1,1.44-.78,3.09,3.09,0,0,1,2.13.73,4.71,4.71,0,0,1,1.39,1.55,3.64,3.64,0,0,1,.45,1.77,3,3,0,0,1-.63,1.76,7.35,7.35,0,0,1-.61.72l-.19.21,2.06,1.5-.64.88-7.35-5.34.64-.88Zm1.05.76,2.27,1.65a4.07,4.07,0,0,0,.77-.79,2.15,2.15,0,0,0,.35-1.8,3.19,3.19,0,0,0-1.32-1.8,2.53,2.53,0,0,0-1.41-.57,1.06,1.06,0,0,0-.89.39,1.81,1.81,0,0,0-.25,1.21A5,5,0,0,0,142.36,171.61Z"/><path d="M151.9,164.16a5.79,5.79,0,0,1-1,2.37,3,3,0,0,1-1.29,1,3.1,3.1,0,0,1-1.67.16,3.68,3.68,0,0,1-1.66-.69,3.92,3.92,0,0,1-1.16-1.33,3.09,3.09,0,0,1-.38-1.66,2.93,2.93,0,0,1,.56-1.56,2.35,2.35,0,0,1,1.78-1,3.89,3.89,0,0,1,2.48.93l.19.14-2.65,3.65a2.62,2.62,0,0,0,1.17.5,2,2,0,0,0,1.13-.1,2.07,2.07,0,0,0,.85-.69,5,5,0,0,0,.8-2.3Zm-5.37,1.48,1.92-2.64-.13-.09a1.87,1.87,0,0,0-1.26-.43,1.26,1.26,0,0,0-1,.57,1.56,1.56,0,0,0-.28,1.21A2.72,2.72,0,0,0,146.53,165.64Z"/><path d="M156.29,158.42a5.72,5.72,0,0,1-.34,1.12,3.72,3.72,0,0,1-.35.58,2.88,2.88,0,0,1-.95.86,1.81,1.81,0,0,1-1.13.23,3.32,3.32,0,0,1-1.46-.7L149.93,159l-1,1.32-.74-.53,1-1.32-2.13-1.55.64-.88,2.13,1.55,1.72-2.36.73.53-1.71,2.36,2.12,1.54a2.25,2.25,0,0,0,1,.5,1.11,1.11,0,0,0,.68-.12,1.67,1.67,0,0,0,.56-.51,3.44,3.44,0,0,0,.58-1.64Z"/><path d="M157.35,157.12l-.92-.67a5.3,5.3,0,0,0,1.91-1.48,2.11,2.11,0,0,0,.44-1.53,1.85,1.85,0,0,0-.8-1.31,1.73,1.73,0,0,0-1.52-.3,3.36,3.36,0,0,0-1.73,1.46l-.36.48-.73-.53.49-.68a2.28,2.28,0,0,0,.56-1.64,1.61,1.61,0,0,0-.63-1.08,1.23,1.23,0,0,0-1-.22,1.79,1.79,0,0,0-1.06.8,4.85,4.85,0,0,0-.79,2l-.83-.61a5.91,5.91,0,0,1,.86-1.89,3.14,3.14,0,0,1,1.87-1.47,2.11,2.11,0,0,1,1.58.37,2.28,2.28,0,0,1,.75,1,2.86,2.86,0,0,1,.06,1.57,3.48,3.48,0,0,1,1.17-.63,2.3,2.3,0,0,1,1,0,2.59,2.59,0,0,1,1,.44,2.69,2.69,0,0,1,1.15,2,3.53,3.53,0,0,1-.77,2.46,6.38,6.38,0,0,1-.61.73A4.58,4.58,0,0,1,157.35,157.12Z"/><path d="M163.56,149.33a.88.88,0,0,1-.62.38.89.89,0,0,1-.71-.17.84.84,0,0,1-.38-.62.93.93,0,0,1,.16-.71,1,1,0,0,1,.62-.38.93.93,0,0,1,.72.17.91.91,0,0,1,.38.62A.94.94,0,0,1,163.56,149.33Z"/><path d="M160.66,137.7a.64.64,0,0,1-.3-.53.73.73,0,0,1,.57-.77.66.66,0,0,1,.59.12.64.64,0,0,1,.29.52.71.71,0,0,1-.56.77A.62.62,0,0,1,160.66,137.7Zm7.46,9.25-.82-.6a5.56,5.56,0,0,0,1.12-1.09,1.88,1.88,0,0,0,.39-.86,1.3,1.3,0,0,0-.17-.86,4.11,4.11,0,0,0-1.14-1.09l-4.09-3-1.63,2.24-.73-.53,2.27-3.13,4.65,3.38a4.78,4.78,0,0,1,1.64,1.68,2.38,2.38,0,0,1,.19,1.31,3.46,3.46,0,0,1-.67,1.4A7.35,7.35,0,0,1,168.12,147Z"/><path d="M166.71,135.9a3.64,3.64,0,0,1-.29-1.7,2.43,2.43,0,0,1,.41-1.28,2,2,0,0,1,1.44-.78,3.09,3.09,0,0,1,2.13.73,4.61,4.61,0,0,1,1.39,1.55,3.71,3.71,0,0,1,.46,1.77,3,3,0,0,1-.64,1.76c-.12.16-.32.4-.61.72l-.19.21,2.06,1.5-.64.88-7.35-5.35.64-.88Zm1,.76,2.27,1.65a4.37,4.37,0,0,0,.77-.79,2.12,2.12,0,0,0,.35-1.8,3.19,3.19,0,0,0-1.32-1.8,2.39,2.39,0,0,0-1.41-.57,1.06,1.06,0,0,0-.89.39,1.86,1.86,0,0,0-.25,1.21A5,5,0,0,0,167.76,136.66Z"/><path d="M175.84,129.46a3.5,3.5,0,0,1,.29,1.7,2.59,2.59,0,0,1-.42,1.29,2,2,0,0,1-1.44.78,3.08,3.08,0,0,1-2.12-.74,4.48,4.48,0,0,1-1.39-1.54,3.77,3.77,0,0,1-.46-1.77,3,3,0,0,1,.64-1.76c.12-.17.32-.41.6-.73a2,2,0,0,0,.19-.2l.64-.89,3.75,2.72c.89.65,1.43,1.06,1.61,1.22a5.35,5.35,0,0,1,.51.55,2.29,2.29,0,0,1,.49,1.68,3.92,3.92,0,0,1-.78,1.93,5.39,5.39,0,0,1-1.91,1.59l-.89-.65a4.88,4.88,0,0,0,1.12-.59,3.89,3.89,0,0,0,1-.92,2.67,2.67,0,0,0,.43-.86,1.78,1.78,0,0,0,.05-.85,1.57,1.57,0,0,0-.34-.71,4.48,4.48,0,0,0-.79-.7Zm-1.05-.76-2.27-1.65a4,4,0,0,0-.76.79,2.09,2.09,0,0,0-.36,1.81,3.19,3.19,0,0,0,1.32,1.8,2.43,2.43,0,0,0,1.41.56,1,1,0,0,0,.89-.38,1.89,1.89,0,0,0,.25-1.22A5,5,0,0,0,174.79,128.7Z"/><line class="cls-4" x1="191.62" y1="128.23" x2="142.51" y2="198.43"/><line class="cls-5" x1="191.62" y1="128.23" x2="147.13" y2="191.82"/><polygon class="cls-2" points="145.21 185.85 148.08 190.46 153.4 191.58 142.51 198.43 145.21 185.85"/><rect class="cls-1" y="161.44" width="71.23" height="78.9" rx="3.65"/><rect class="cls-2" x="3.84" y="178.43" width="63.01" height="5.48"/><rect class="cls-2" x="3.84" y="190.07" width="63.01" height="5.48"/><rect class="cls-2" x="4.38" y="201.71" width="63.01" height="5.48"/><rect class="cls-2" x="4.38" y="213.36" width="63.01" height="5.48"/><rect class="cls-2" x="4.38" y="225" width="63.01" height="5.48"/><circle class="cls-3" cx="62.46" cy="169.11" r="3.29"/><line class="cls-4" x1="145.76" y1="104.38" x2="77.46" y2="156.11"/><line class="cls-5" x1="145.76" y1="104.38" x2="83.89" y2="151.24"/><polygon class="cls-2" points="83.89 144.97 85.22 150.24 89.93 152.94 77.46 156.11 83.89 144.97"/><path d="M86.83,131.37a3.58,3.58,0,0,1,.19-1.72,2.65,2.65,0,0,1,.76-1.11,2,2,0,0,1,1.61-.34,3.1,3.1,0,0,1,1.83,1.3,4.57,4.57,0,0,1,.89,1.88,3.64,3.64,0,0,1,0,1.83A3.12,3.12,0,0,1,91,134.72c-.16.12-.42.29-.78.52l-.24.15,1.55,2-.87.67-5.54-7.2.86-.67Zm.79,1,1.71,2.22a4.32,4.32,0,0,0,1-.54,2.15,2.15,0,0,0,.85-1.64,3.17,3.17,0,0,0-.77-2.1,2.47,2.47,0,0,0-1.19-.94,1,1,0,0,0-1,.13,1.82,1.82,0,0,0-.58,1.09A5,5,0,0,0,87.62,132.4Z"/><path d="M98.87,127.94a5.65,5.65,0,0,1-1.58,2,2.86,2.86,0,0,1-1.52.62,3.17,3.17,0,0,1-1.65-.31,3.83,3.83,0,0,1-1.4-1.13,3.89,3.89,0,0,1-.73-1.6,3,3,0,0,1,.09-1.7,2.85,2.85,0,0,1,1-1.34,2.32,2.32,0,0,1,2-.48,3.9,3.9,0,0,1,2.12,1.59l.14.19-3.57,2.75a2.83,2.83,0,0,0,1,.82,2,2,0,0,0,1.11.21,2,2,0,0,0,1-.42,4.91,4.91,0,0,0,1.42-2Zm-5.57-.1,2.59-2-.1-.13A1.93,1.93,0,0,0,94.7,125a1.29,1.29,0,0,0-1.12.27A1.57,1.57,0,0,0,93,126.3,2.74,2.74,0,0,0,93.3,127.84Z"/><path d="M104.7,123.66a5.67,5.67,0,0,1-.64,1,4.19,4.19,0,0,1-.49.46,2.94,2.94,0,0,1-1.16.55,1.74,1.74,0,0,1-1.15-.09,3.26,3.26,0,0,1-1.21-1.08l-1.61-2.09-1.29,1-.55-.72,1.29-1-1.61-2.09.86-.67L98.75,121l2.31-1.77.55.71-2.3,1.78,1.6,2.08a2.52,2.52,0,0,0,.83.77,1.18,1.18,0,0,0,.69.07,1.74,1.74,0,0,0,.67-.33,3.48,3.48,0,0,0,1-1.41Z"/><path d="M108.8,120.83l-1.55-2-3.06,2.36-.56-.72-.38-6.83.86-.67,3.45,4.47,1.33-1,.55.72-1.33,1,1.55,2Zm-2.11-2.73-2.43-3.16.29,4.81Z"/><path d="M114.24,117a1,1,0,0,1-.71.19,1,1,0,0,1-.63-.36.87.87,0,0,1-.19-.71.95.95,0,0,1,1.06-.82.91.91,0,0,1,.64.36.94.94,0,0,1,.19.71A1,1,0,0,1,114.24,117Z"/><path d="M119.28,116l-.62-.8a5.37,5.37,0,0,0,1.39-.73,2.13,2.13,0,0,0,.62-.71,1.34,1.34,0,0,0,.08-.87,4.08,4.08,0,0,0-.79-1.38l-3.09-4-2.2,1.7-.55-.72,3.06-2.36,3.51,4.55a4.72,4.72,0,0,1,1.1,2.07,2.32,2.32,0,0,1-.18,1.31,3.48,3.48,0,0,1-1,1.16A7.87,7.87,0,0,1,119.28,116Zm-4.55-11a.66.66,0,0,1-.13-.59.79.79,0,0,1,.26-.43.77.77,0,0,1,.49-.15.71.71,0,0,1,.67.86.87.87,0,0,1-.27.44.86.86,0,0,1-.49.15A.66.66,0,0,1,114.73,105Z"/><path d="M121,105a3.7,3.7,0,0,1,.2-1.72,2.57,2.57,0,0,1,.76-1.11,2,2,0,0,1,1.6-.34,3.09,3.09,0,0,1,1.84,1.3,4.57,4.57,0,0,1,.89,1.88,3.7,3.7,0,0,1-.06,1.82,3,3,0,0,1-1.11,1.51c-.16.13-.42.3-.78.53l-.24.14,1.55,2-.86.66-5.55-7.19.87-.67Zm.8,1,1.71,2.23a4,4,0,0,0,1-.55,2.11,2.11,0,0,0,.84-1.63,3.12,3.12,0,0,0-.76-2.1,2.51,2.51,0,0,0-1.19-.94,1,1,0,0,0-1,.12,1.83,1.83,0,0,0-.58,1.1A5,5,0,0,0,121.84,106Z"/><path d="M131.61,101.38a3.46,3.46,0,0,1-.19,1.72,2.58,2.58,0,0,1-.77,1.11,1.93,1.93,0,0,1-1.6.34,3.1,3.1,0,0,1-1.83-1.3,4.59,4.59,0,0,1-.89-1.87,3.64,3.64,0,0,1,0-1.83A3.08,3.08,0,0,1,127.49,98c.17-.13.43-.3.78-.52l.24-.15.87-.67,2.83,3.67c.67.87,1.07,1.41,1.19,1.62a5.32,5.32,0,0,1,.35.67,2.26,2.26,0,0,1,0,1.75,3.93,3.93,0,0,1-1.29,1.63,5.5,5.5,0,0,1-2.28,1l-.68-.87a4.9,4.9,0,0,0,1.25-.26,3.91,3.91,0,0,0,1.19-.6,2.91,2.91,0,0,0,.65-.71,1.7,1.7,0,0,0,.29-.8,1.61,1.61,0,0,0-.13-.78,3.81,3.81,0,0,0-.56-.89Zm-.79-1-1.71-2.23a4.47,4.47,0,0,0-1,.54,2.15,2.15,0,0,0-.86,1.65,3.18,3.18,0,0,0,.77,2.09,2.42,2.42,0,0,0,1.19.94,1,1,0,0,0,1-.12,1.85,1.85,0,0,0,.58-1.1A5,5,0,0,0,130.82,100.36Z"/></g></svg>